<svg width="2366" height="365" viewBox="0 0 2366 365" fill="none" xmlns="http://www.w3.org/2000/svg">
<path opacity="0.68" d="M1946.53 0C1957.66 4.86324e-07 1966.68 9.01972 1966.68 20.1455V266.146C1966.68 272.772 1966.68 276.085 1965.87 279.189C1965.29 281.409 1964.41 283.539 1963.25 285.519C1961.62 288.286 1959.28 290.629 1954.59 295.314L1901.03 348.884C1896.34 353.569 1894 355.912 1891.23 357.534C1889.25 358.694 1887.12 359.577 1884.9 360.156C1881.8 360.966 1878.48 360.966 1871.86 360.966H1700.53C1693.9 360.966 1690.59 360.966 1687.49 360.156C1685.27 359.577 1683.14 358.694 1681.16 357.534C1678.39 355.912 1676.05 353.569 1671.36 348.884L1617.79 295.314C1613.11 290.629 1610.77 288.286 1609.14 285.519C1607.98 283.539 1607.1 281.409 1606.52 279.189C1605.71 276.085 1605.71 272.772 1605.71 266.146V20.1455C1605.71 9.01972 1614.73 4.86324e-07 1625.86 0C1636.98 0.000271939 1646 9.01989 1646 20.1455V276.126C1646 292.523 1646 300.721 1649.44 306.868C1651.88 311.213 1655.46 314.8 1659.81 317.233C1665.96 320.676 1674.15 320.676 1690.55 320.676H1881.84C1898.23 320.676 1906.43 320.676 1912.58 317.233C1916.92 314.8 1920.51 311.213 1922.94 306.868C1926.39 300.721 1926.39 292.523 1926.39 276.126V20.1455C1926.39 9.01989 1935.41 0.000271939 1946.53 0Z" fill="#FF3600"/>
<g opacity="0.68">
<path d="M742.248 0C753.374 0 762.394 9.01972 762.394 20.1455C762.393 31.2711 753.374 40.29 742.248 40.29H486.268C469.871 40.29 461.673 40.29 455.525 43.7324C451.181 46.1655 447.593 49.7531 445.16 54.0977C441.718 60.2448 441.718 68.4433 441.718 84.8398V140.013C441.718 151.138 432.699 160.158 421.573 160.158C410.448 160.158 401.428 151.139 401.428 140.014V94.8197C401.428 88.1937 401.428 84.8806 402.238 81.7765C402.817 79.5564 403.699 77.4267 404.859 75.4473C406.482 72.6796 408.824 70.3369 413.51 65.6516L467.079 12.0818C471.765 7.39651 474.107 5.05385 476.875 3.43164C478.854 2.27148 480.984 1.38933 483.204 0.810023C486.308 0 489.621 0 496.247 0H742.248Z" fill="#FF3600"/>
<path d="M742.248 162.158C753.374 162.158 762.394 171.178 762.394 182.303C762.393 193.429 753.374 202.448 742.248 202.448H486.268C469.871 202.448 461.673 202.448 455.525 205.89C451.181 208.323 447.593 211.911 445.16 216.256C441.718 222.403 441.718 230.601 441.718 246.998V276.371C441.718 292.767 441.718 300.966 445.16 307.113C447.593 311.458 451.181 315.045 455.525 317.478C461.673 320.921 469.871 320.921 486.268 320.921H742.248C753.374 320.921 762.393 329.94 762.394 341.065C762.394 352.191 753.374 361.211 742.248 361.211H496.247C489.621 361.211 486.308 361.211 483.204 360.401C480.984 359.822 478.854 358.939 476.875 357.779C474.107 356.157 471.764 353.814 467.079 349.129L413.51 295.559C408.824 290.874 406.482 288.531 404.859 285.763C403.699 283.784 402.817 281.654 402.237 279.434C401.561 276.844 401.451 274.108 401.433 269.422C401.431 269.387 401.428 269.352 401.428 269.316V254.052C401.428 254.017 401.431 253.981 401.433 253.946C401.451 249.261 401.561 246.525 402.237 243.934C402.817 241.714 403.699 239.585 404.859 237.605C406.482 234.837 408.824 232.495 413.51 227.809L467.079 174.24C471.764 169.555 474.107 167.212 476.875 165.59C478.854 164.429 480.984 163.547 483.204 162.968C486.308 162.158 489.621 162.158 496.247 162.158H742.248Z" fill="#FF3600"/>
</g>
<g opacity="0.68">
<path d="M2112.3 6.12021e-06C2112.32 9.0287e-06 2112.33 0.000654496 2112.35 0.000982683C2117.89 0.00661619 2120.9 0.0702691 2123.73 0.809576C2125.95 1.38888 2128.08 2.27149 2130.06 3.43165C2132.83 5.05385 2135.17 7.39672 2139.86 12.082L2194.43 66.6514C2199.11 71.3367 2201.46 73.6795 2203.08 76.4473C2204.24 78.4267 2205.12 80.5564 2205.7 82.7764C2206.51 85.8805 2206.51 89.1936 2206.51 95.8193V340.82C2206.51 351.946 2197.49 360.966 2186.36 360.966C2175.24 360.966 2166.22 351.946 2166.22 340.82V84.8399C2166.22 68.4433 2166.22 60.2448 2162.78 54.0977C2160.34 49.7532 2156.76 46.1655 2152.41 43.7324C2146.27 40.2901 2138.07 40.29 2121.67 40.29H2091.98C2075.58 40.29 2067.38 40.2903 2061.24 43.7324C2056.89 46.1654 2053.3 49.7532 2050.87 54.0977C2047.43 60.2448 2047.43 68.4433 2047.43 84.8399V340.82C2047.43 351.946 2038.41 360.965 2027.28 360.966C2016.16 360.966 2007.14 351.946 2007.14 340.82V95.8193C2007.14 89.1935 2007.14 85.8805 2007.95 82.7764C2008.53 80.5564 2009.41 78.4267 2010.57 76.4473C2012.19 73.6796 2014.53 71.3365 2019.22 66.6514L2073.79 12.082C2078.48 7.39674 2080.82 5.05385 2083.59 3.43165C2085.57 2.27158 2087.7 1.38885 2089.92 0.809576C2092.75 0.0704032 2095.76 0.00661918 2101.3 0.000982683C2101.31 0.000645688 2101.33 6.11865e-06 2101.35 6.12021e-06H2112.3Z" fill="#FF3600"/>
<path d="M2365.67 340.82C2365.67 351.946 2356.65 360.966 2345.52 360.966C2334.4 360.966 2325.38 351.946 2325.38 340.82V84.8399C2325.38 68.4433 2325.38 60.2448 2321.94 54.0977C2319.5 49.7531 2315.92 46.1655 2311.57 43.7324C2305.42 40.2901 2297.22 40.29 2280.83 40.29L2225.66 40.29C2214.53 40.29 2205.51 31.2711 2205.51 20.1455C2205.51 9.01988 2214.53 0.000263012 2225.65 0L2270.85 1.97549e-06C2277.47 2.26512e-06 2280.79 2.38419e-06 2283.89 0.810025C2286.11 1.38933 2288.24 2.27148 2290.22 3.43164C2292.99 5.05385 2295.33 7.39652 2300.02 12.0818L2353.59 65.6516C2358.27 70.3369 2360.61 72.6796 2362.24 75.4473C2363.4 77.4267 2364.28 79.5564 2364.86 81.7765C2365.67 84.8806 2365.67 88.1937 2365.67 94.8197V340.82Z" fill="#FF3600"/>
</g>
<g opacity="0.68">
<path d="M340.82 0C351.946 0 360.966 9.01972 360.966 20.1455C360.966 31.2711 351.946 40.29 340.82 40.29H84.8398C68.4433 40.29 60.2448 40.29 54.0977 43.7324C49.7531 46.1655 46.1655 49.7531 43.7324 54.0977C40.29 60.2448 40.29 68.4433 40.29 84.8398V140.013C40.29 151.138 31.2711 160.158 20.1455 160.158C9.01988 160.158 0.000263498 151.139 0 140.014V94.8197C0 88.1937 0 84.8806 0.810023 81.7765C1.38933 79.5564 2.27148 77.4267 3.43164 75.4473C5.05385 72.6796 7.39651 70.3369 12.0818 65.6516L65.6516 12.0818C70.3369 7.39651 72.6796 5.05385 75.4473 3.43164C77.4267 2.27148 79.5564 1.38933 81.7765 0.810023C84.8806 0 88.1937 0 94.8197 0H340.82Z" fill="#FF3600"/>
<path d="M340.82 161.158C351.946 161.158 360.966 170.178 360.966 181.303C360.966 192.429 351.946 201.448 340.82 201.448H84.8398C68.4433 201.448 60.2448 201.448 54.0977 204.89C49.7531 207.323 46.1655 210.911 43.7324 215.256C40.29 221.403 40.29 229.601 40.29 245.998V344.172C40.2898 355.297 31.2709 364.316 20.1455 364.316C9.01988 364.316 0.000263732 355.297 0 344.172V255.978C0 249.352 0 246.039 0.810023 242.934C1.38933 240.714 2.27148 238.585 3.43164 236.605C5.05385 233.838 7.39651 231.495 12.0818 226.81L65.6516 173.24C70.3369 168.554 72.6796 166.212 75.4473 164.59C77.4267 163.429 79.5564 162.547 81.7765 161.968C84.8806 161.158 88.1937 161.158 94.8197 161.158H340.82Z" fill="#FF3600"/>
</g>
<g opacity="0.68">
<path d="M823.001 0C811.875 0 802.856 9.01972 802.856 20.1455C802.856 31.2711 811.876 40.29 823.001 40.29H1078.98C1095.38 40.29 1103.58 40.29 1109.72 43.7324C1114.07 46.1655 1117.66 49.7531 1120.09 54.0977C1123.53 60.2448 1123.53 68.4433 1123.53 84.8398V140.013C1123.53 151.138 1132.55 160.158 1143.68 160.158C1154.8 160.158 1163.82 151.139 1163.82 140.014V94.8197C1163.82 88.1937 1163.82 84.8806 1163.01 81.7765C1162.43 79.5564 1161.55 77.4267 1160.39 75.4473C1158.77 72.6796 1156.43 70.3369 1151.74 65.6516L1098.17 12.0818C1093.48 7.39651 1091.14 5.05385 1088.37 3.43164C1086.39 2.27148 1084.27 1.38933 1082.05 0.810023C1078.94 0 1075.63 0 1069 0H823.001Z" fill="#FF3600"/>
<path d="M823.001 161.158C811.875 161.158 802.856 170.178 802.856 181.303C802.856 192.429 811.876 201.448 823.001 201.448H1078.98C1095.38 201.448 1103.58 201.448 1109.72 204.89C1114.07 207.323 1117.66 210.911 1120.09 215.256C1123.53 221.403 1123.53 229.601 1123.53 245.998V344.172C1123.53 355.297 1132.55 364.316 1143.68 364.316C1154.8 364.316 1163.82 355.297 1163.82 344.172V255.978C1163.82 249.352 1163.82 246.039 1163.01 242.934C1162.43 240.714 1161.55 238.585 1160.39 236.605C1158.77 233.838 1156.43 231.495 1151.74 226.81L1098.17 173.24C1093.48 168.554 1091.14 166.212 1088.37 164.59C1086.39 163.429 1084.27 162.547 1082.05 161.968C1078.94 161.158 1075.63 161.158 1069 161.158H823.001Z" fill="#FF3600"/>
</g>
<g opacity="0.68">
<path d="M1224.43 0C1213.3 0 1204.28 9.01972 1204.28 20.1455C1204.28 31.2711 1213.3 40.29 1224.43 40.29H1480.41C1496.81 40.29 1505 40.29 1511.15 43.7324C1515.5 46.1655 1519.08 49.7531 1521.52 54.0977C1524.96 60.2448 1524.96 68.4433 1524.96 84.8398V140.013C1524.96 151.138 1533.98 160.158 1545.1 160.158C1556.23 160.158 1565.25 151.139 1565.25 140.014V94.8197C1565.25 88.1937 1565.25 84.8806 1564.44 81.7765C1563.86 79.5564 1562.98 77.4267 1561.82 75.4473C1560.2 72.6796 1557.85 70.3369 1553.17 65.6516L1499.6 12.0818C1494.91 7.39651 1492.57 5.05385 1489.8 3.43164C1487.82 2.27148 1485.69 1.38933 1483.47 0.810023C1480.37 0 1477.06 0 1470.43 0H1224.43Z" fill="#FF3600"/>
<path d="M1224.43 161.158C1213.3 161.158 1204.28 170.178 1204.28 181.303C1204.28 192.429 1213.3 201.448 1224.43 201.448H1480.41C1496.81 201.448 1505 201.448 1511.15 204.89C1515.5 207.323 1519.08 210.911 1521.52 215.256C1524.96 221.403 1524.96 229.601 1524.96 245.998V344.172C1524.96 355.297 1533.98 364.316 1545.1 364.316C1556.23 364.316 1565.25 355.297 1565.25 344.172V255.978C1565.25 249.352 1565.25 246.039 1564.44 242.934C1563.86 240.714 1562.98 238.585 1561.82 236.605C1560.2 233.838 1557.85 231.495 1553.17 226.81L1499.6 173.24C1494.91 168.554 1492.57 166.212 1489.8 164.59C1487.82 163.429 1485.69 162.547 1483.47 161.968C1480.37 161.158 1477.06 161.158 1470.43 161.158H1224.43Z" fill="#FF3600"/>
</g>
</svg>
